<svg xmlns="http://www.w3.org/2000/svg" viewBox="0 0 459.51 375.48"><g id="Layer_3" data-name="Layer 3"><path d="M464.68,422.33l-.44-.35h0L35,76.68a15,15,0,1,0-18.79,23.39L45.05,123.3a44,44,0,0,0-1.44,11.2V340.84A44.15,44.15,0,0,0,87.71,385H370.35l8.27,6.65H39.78a15,15,0,1,0,0,30H415.91l29.54,23.76a15,15,0,0,0,19.23-23ZM87.71,355a14.12,14.12,0,0,1-14.1-14.11V146.27l111.47,89.66C163.79,259,152,288.28,145.87,317.62c20-26.87,44.2-43.85,76-52.09L333.05,355Z" transform="translate(-10.56 -73.37)"/><path d="M225,206.6l83.66,67.22,50.58-47.3L273.87,147v45.44C255.13,195,238.94,199.91,225,206.6Z" transform="translate(-10.56 -73.37)"/><path d="M410.44,120.4a14.12,14.12,0,0,1,14.1,14.1V340.84A14.12,14.12,0,0,1,410.44,355h-.86l26.8,21.53a44.06,44.06,0,0,0,18.16-35.64V134.5a44.15,44.15,0,0,0-44.1-44.1H87.71a43.84,43.84,0,0,0-6.72.51l36.69,29.49Z" transform="translate(-10.56 -73.37)"/></g></svg>